<svg xmlns="http://www.w3.org/2000/svg" xmlns:xlink="http://www.w3.org/1999/xlink" width="500" zoomAndPan="magnify" viewBox="0 0 375 374.999991" height="500" preserveAspectRatio="xMidYMid meet" version="1.0"><defs><clipPath id="a2a85de86f"><path d="M 20.695312 20.695312 L 354.304688 20.695312 L 354.304688 354.304688 L 20.695312 354.304688 Z M 20.695312 20.695312 " clip-rule="nonzero"/></clipPath><clipPath id="f6fcf59479"><path d="M 187.5 20.695312 C 95.378906 20.695312 20.695312 95.378906 20.695312 187.5 C 20.695312 279.621094 95.378906 354.304688 187.5 354.304688 C 279.621094 354.304688 354.304688 279.621094 354.304688 187.5 C 354.304688 95.378906 279.621094 20.695312 187.5 20.695312 Z M 187.5 20.695312 " clip-rule="nonzero"/></clipPath><clipPath id="2b9ef5d76f"><path d="M 20.695312 20.695312 L 354.292969 20.695312 L 354.292969 354.292969 L 20.695312 354.292969 Z M 20.695312 20.695312 " clip-rule="nonzero"/></clipPath><clipPath id="0aebfb84b6"><path d="M 187.496094 20.695312 C 95.375 20.695312 20.695312 95.375 20.695312 187.496094 C 20.695312 279.617188 95.375 354.292969 187.496094 354.292969 C 279.617188 354.292969 354.292969 279.617188 354.292969 187.496094 C 354.292969 95.375 279.617188 20.695312 187.496094 20.695312 Z M 187.496094 20.695312 " clip-rule="nonzero"/></clipPath><clipPath id="89f07effd4"><path d="M 100.847656 80.023438 L 274.097656 80.023438 L 274.097656 295 L 100.847656 295 Z M 100.847656 80.023438 " clip-rule="nonzero"/></clipPath></defs><g clip-path="url(#a2a85de86f)"><g clip-path="url(#f6fcf59479)"><path fill="#5e17eb" d="M 20.695312 20.695312 L 354.304688 20.695312 L 354.304688 354.304688 L 20.695312 354.304688 Z M 20.695312 20.695312 " fill-opacity="1" fill-rule="nonzero"/></g></g><g clip-path="url(#2b9ef5d76f)"><g clip-path="url(#0aebfb84b6)"><path stroke-linecap="butt" transform="matrix(0.75, 0, 0, 0.75, 20.697017, 20.697012)" fill="none" stroke-linejoin="miter" d="M 222.398798 -0.00226611 C 99.570657 -0.00226611 -0.00227211 99.570663 -0.00227211 222.398804 C -0.00227211 345.226945 99.570657 444.794667 222.398798 444.794667 C 345.226939 444.794667 444.794661 345.226945 444.794661 222.398804 C 444.794661 99.570663 345.226939 -0.00226611 222.398798 -0.00226611 Z M 222.398798 -0.00226611 " stroke="#000000" stroke-width="28" stroke-opacity="1" stroke-miterlimit="4"/></g></g><path fill="#cce2f9" d="M 104.3125 83.519531 L 242.953125 83.519531 L 242.953125 263.75 L 104.3125 263.75 Z M 104.3125 83.519531 " fill-opacity="1" fill-rule="nonzero"/><path fill="#ecf5fd" d="M 104.3125 83.519531 L 104.3125 138.976562 C 104.3125 207.882812 148.539062 263.75 203.09375 263.75 L 242.953125 263.75 L 242.953125 83.519531 Z M 104.3125 83.519531 " fill-opacity="1" fill-rule="nonzero"/><path fill="#cce2f9" d="M 118.179688 97.382812 L 256.816406 97.382812 L 256.816406 277.613281 L 118.179688 277.613281 Z M 118.179688 97.382812 " fill-opacity="1" fill-rule="nonzero"/><path fill="#ecf5fd" d="M 118.179688 97.382812 L 118.179688 152.839844 C 118.179688 221.75 162.402344 277.613281 216.957031 277.613281 L 256.816406 277.613281 L 256.816406 97.382812 Z M 118.179688 97.382812 " fill-opacity="1" fill-rule="nonzero"/><path fill="#cce2f9" d="M 132.042969 111.246094 L 132.042969 291.476562 L 242.953125 291.476562 L 270.679688 263.75 L 270.679688 111.246094 Z M 132.042969 111.246094 " fill-opacity="1" fill-rule="nonzero"/><path fill="#ecf5fd" d="M 270.679688 263.75 L 270.679688 111.246094 L 132.042969 111.246094 L 132.042969 166.703125 C 132.042969 235.613281 176.265625 291.476562 230.820312 291.476562 C 235.332031 291.476562 239.761719 291.058594 244.105469 290.320312 Z M 270.679688 263.75 " fill-opacity="1" fill-rule="nonzero"/><path fill="#5e17eb" d="M 242.953125 173.632812 C 242.953125 174.996094 242.886719 176.355469 242.75 177.710938 C 242.617188 179.066406 242.417969 180.414062 242.152344 181.75 C 241.886719 183.085938 241.554688 184.402344 241.160156 185.707031 C 240.765625 187.011719 240.308594 188.292969 239.785156 189.550781 C 239.265625 190.808594 238.683594 192.039062 238.039062 193.238281 C 237.398438 194.441406 236.699219 195.609375 235.941406 196.742188 C 235.1875 197.875 234.375 198.964844 233.511719 200.019531 C 232.648438 201.074219 231.734375 202.082031 230.769531 203.042969 C 229.808594 204.007812 228.800781 204.921875 227.746094 205.785156 C 226.691406 206.648438 225.601562 207.460938 224.46875 208.214844 C 223.335938 208.972656 222.167969 209.671875 220.964844 210.3125 C 219.765625 210.957031 218.535156 211.539062 217.277344 212.058594 C 216.019531 212.582031 214.738281 213.039062 213.433594 213.433594 C 212.128906 213.828125 210.8125 214.160156 209.476562 214.425781 C 208.140625 214.691406 206.792969 214.890625 205.4375 215.023438 C 204.082031 215.160156 202.722656 215.226562 201.359375 215.226562 C 200 215.226562 198.640625 215.160156 197.285156 215.023438 C 195.929688 214.890625 194.582031 214.691406 193.246094 214.425781 C 191.910156 214.160156 190.589844 213.828125 189.289062 213.433594 C 187.984375 213.039062 186.703125 212.582031 185.445312 212.058594 C 184.1875 211.539062 182.957031 210.957031 181.753906 210.3125 C 180.554688 209.671875 179.386719 208.972656 178.253906 208.214844 C 177.121094 207.460938 176.027344 206.648438 174.976562 205.785156 C 173.921875 204.921875 172.914062 204.007812 171.953125 203.042969 C 170.988281 202.082031 170.074219 201.074219 169.210938 200.019531 C 168.347656 198.964844 167.535156 197.875 166.777344 196.742188 C 166.023438 195.609375 165.324219 194.441406 164.679688 193.238281 C 164.039062 192.039062 163.457031 190.808594 162.933594 189.550781 C 162.414062 188.292969 161.957031 187.011719 161.558594 185.707031 C 161.164062 184.402344 160.835938 183.085938 160.570312 181.75 C 160.304688 180.414062 160.101562 179.066406 159.96875 177.710938 C 159.835938 176.355469 159.769531 174.996094 159.769531 173.632812 C 159.769531 172.273438 159.835938 170.914062 159.96875 169.558594 C 160.101562 168.203125 160.304688 166.855469 160.570312 165.519531 C 160.835938 164.183594 161.164062 162.863281 161.558594 161.5625 C 161.957031 160.257812 162.414062 158.976562 162.933594 157.71875 C 163.457031 156.460938 164.039062 155.230469 164.679688 154.027344 C 165.324219 152.828125 166.023438 151.660156 166.777344 150.527344 C 167.535156 149.394531 168.347656 148.300781 169.210938 147.25 C 170.074219 146.195312 170.988281 145.1875 171.953125 144.226562 C 172.914062 143.261719 173.921875 142.347656 174.976562 141.484375 C 176.027344 140.621094 177.121094 139.808594 178.253906 139.050781 C 179.386719 138.296875 180.554688 137.597656 181.753906 136.953125 C 182.957031 136.3125 184.1875 135.730469 185.445312 135.207031 C 186.703125 134.6875 187.984375 134.230469 189.289062 133.832031 C 190.589844 133.4375 191.910156 133.109375 193.246094 132.84375 C 194.582031 132.578125 195.929688 132.375 197.285156 132.242188 C 198.640625 132.109375 200 132.042969 201.359375 132.042969 C 202.722656 132.042969 204.082031 132.109375 205.4375 132.242188 C 206.792969 132.375 208.140625 132.578125 209.476562 132.84375 C 210.8125 133.109375 212.128906 133.4375 213.433594 133.832031 C 214.738281 134.230469 216.019531 134.6875 217.277344 135.207031 C 218.535156 135.730469 219.765625 136.3125 220.964844 136.953125 C 222.167969 137.597656 223.335938 138.296875 224.46875 139.050781 C 225.601562 139.808594 226.691406 140.621094 227.746094 141.484375 C 228.800781 142.347656 229.808594 143.261719 230.769531 144.226562 C 231.734375 145.1875 232.648438 146.195312 233.511719 147.25 C 234.375 148.300781 235.1875 149.394531 235.941406 150.527344 C 236.699219 151.660156 237.398438 152.828125 238.039062 154.027344 C 238.683594 155.230469 239.265625 156.460938 239.785156 157.71875 C 240.308594 158.976562 240.765625 160.257812 241.160156 161.5625 C 241.554688 162.863281 241.886719 164.183594 242.152344 165.519531 C 242.417969 166.855469 242.617188 168.203125 242.75 169.558594 C 242.886719 170.914062 242.953125 172.273438 242.953125 173.632812 Z M 242.953125 173.632812 " fill-opacity="1" fill-rule="nonzero"/><path fill="#8c52ff" d="M 201.359375 132.042969 C 193.238281 132.042969 185.675781 134.410156 179.273438 138.4375 C 177.863281 142.988281 177.097656 147.824219 177.097656 152.839844 C 177.097656 179.636719 198.824219 201.363281 225.621094 201.363281 C 228.082031 201.363281 230.476562 201.117188 232.839844 200.765625 C 239.125 193.480469 242.953125 184.011719 242.953125 173.632812 C 242.953125 150.664062 224.328125 132.042969 201.359375 132.042969 Z M 201.359375 132.042969 " fill-opacity="1" fill-rule="nonzero"/><path fill="#cce2f9" d="M 242.953125 263.75 L 242.953125 291.476562 L 270.679688 263.75 Z M 242.953125 263.75 " fill-opacity="1" fill-rule="nonzero"/><path fill="#5e17eb" d="M 149.371094 229.089844 L 163.234375 229.089844 L 163.234375 242.953125 L 149.371094 242.953125 Z M 149.371094 229.089844 " fill-opacity="1" fill-rule="nonzero"/><path fill="#8c52ff" d="M 149.527344 229.089844 C 150.304688 236.878906 156.105469 242.953125 163.234375 242.953125 L 163.234375 229.089844 Z M 149.527344 229.089844 " fill-opacity="1" fill-rule="nonzero"/><path fill="#5e17eb" d="M 149.371094 256.816406 L 163.234375 256.816406 L 163.234375 270.679688 L 149.371094 270.679688 Z M 149.371094 256.816406 " fill-opacity="1" fill-rule="nonzero"/><path fill="#8c52ff" d="M 149.527344 256.816406 C 150.304688 264.605469 156.105469 270.679688 163.234375 270.679688 L 163.234375 256.816406 Z M 149.527344 256.816406 " fill-opacity="1" fill-rule="nonzero"/><g clip-path="url(#89f07effd4)"><path fill="#000000" d="M 270.679688 107.78125 L 260.28125 107.78125 L 260.28125 97.382812 C 260.28125 95.46875 258.730469 93.917969 256.816406 93.917969 L 246.417969 93.917969 L 246.417969 83.519531 C 246.417969 81.601562 244.863281 80.054688 242.953125 80.054688 L 104.3125 80.054688 C 102.402344 80.054688 100.847656 81.601562 100.847656 83.519531 L 100.847656 263.75 C 100.847656 265.664062 102.402344 267.214844 104.3125 267.214844 L 114.710938 267.214844 L 114.710938 277.613281 C 114.710938 279.527344 116.265625 281.078125 118.179688 281.078125 L 128.574219 281.078125 L 128.574219 291.476562 C 128.574219 293.394531 130.128906 294.941406 132.042969 294.941406 L 242.953125 294.941406 C 243.871094 294.941406 244.753906 294.578125 245.402344 293.925781 L 273.128906 266.199219 C 273.78125 265.550781 274.144531 264.671875 274.144531 263.75 L 274.144531 111.246094 C 274.144531 109.332031 272.59375 107.78125 270.679688 107.78125 Z M 114.710938 97.382812 L 114.710938 260.28125 L 107.78125 260.28125 L 107.78125 86.984375 L 239.484375 86.984375 L 239.484375 93.917969 L 118.179688 93.917969 C 116.265625 93.917969 114.710938 95.46875 114.710938 97.382812 Z M 128.574219 111.246094 L 128.574219 274.144531 L 121.644531 274.144531 L 121.644531 100.847656 L 253.351562 100.847656 L 253.351562 107.78125 L 132.042969 107.78125 C 130.128906 107.78125 128.574219 109.332031 128.574219 111.246094 Z M 135.507812 114.714844 L 267.214844 114.714844 L 267.214844 260.28125 L 242.953125 260.28125 C 241.039062 260.28125 239.484375 261.832031 239.484375 263.75 L 239.484375 288.011719 L 135.507812 288.011719 Z M 262.3125 267.214844 L 246.417969 283.109375 L 246.417969 267.214844 Z M 262.3125 267.214844 " fill-opacity="1" fill-rule="nonzero"/></g><path fill="#000000" d="M 204.828125 194.429688 L 204.828125 163.238281 C 204.828125 155.589844 198.609375 149.371094 190.960938 149.371094 C 183.316406 149.371094 177.097656 155.589844 177.097656 163.238281 L 177.097656 194.429688 L 184.03125 194.429688 L 184.03125 184.03125 L 197.894531 184.03125 L 197.894531 194.429688 Z M 184.03125 177.101562 L 184.03125 163.238281 C 184.03125 159.414062 187.140625 156.304688 190.960938 156.304688 C 194.785156 156.304688 197.894531 159.414062 197.894531 163.238281 L 197.894531 177.101562 Z M 184.03125 177.101562 " fill-opacity="1" fill-rule="nonzero"/><path fill="#000000" d="M 246.417969 173.632812 C 246.417969 148.789062 226.203125 128.578125 201.359375 128.578125 C 176.515625 128.578125 156.304688 148.789062 156.304688 173.632812 C 156.304688 198.476562 176.515625 218.691406 201.359375 218.691406 C 226.203125 218.691406 246.417969 198.476562 246.417969 173.632812 Z M 163.234375 173.632812 C 163.234375 152.613281 180.339844 135.507812 201.359375 135.507812 C 222.382812 135.507812 239.484375 152.613281 239.484375 173.632812 C 239.484375 194.65625 222.382812 211.757812 201.359375 211.757812 C 180.339844 211.757812 163.234375 194.65625 163.234375 173.632812 Z M 163.234375 173.632812 " fill-opacity="1" fill-rule="nonzero"/><path fill="#000000" d="M 218.691406 184.03125 L 225.621094 184.03125 L 225.621094 177.101562 L 232.554688 177.101562 L 232.554688 170.167969 L 225.621094 170.167969 L 225.621094 163.238281 L 218.691406 163.238281 L 218.691406 170.167969 L 211.757812 170.167969 L 211.757812 177.101562 L 218.691406 177.101562 Z M 218.691406 184.03125 " fill-opacity="1" fill-rule="nonzero"/><path fill="#000000" d="M 163.234375 225.625 L 149.371094 225.625 C 147.457031 225.625 145.90625 227.171875 145.90625 229.089844 L 145.90625 242.953125 C 145.90625 244.871094 147.457031 246.417969 149.371094 246.417969 L 163.234375 246.417969 C 165.148438 246.417969 166.703125 244.871094 166.703125 242.953125 L 166.703125 229.089844 C 166.703125 227.171875 165.148438 225.625 163.234375 225.625 Z M 159.769531 239.488281 L 152.835938 239.488281 L 152.835938 232.554688 L 159.769531 232.554688 Z M 159.769531 239.488281 " fill-opacity="1" fill-rule="nonzero"/><path fill="#000000" d="M 163.234375 253.351562 L 149.371094 253.351562 C 147.457031 253.351562 145.90625 254.898438 145.90625 256.816406 L 145.90625 270.679688 C 145.90625 272.597656 147.457031 274.144531 149.371094 274.144531 L 163.234375 274.144531 C 165.148438 274.144531 166.703125 272.597656 166.703125 270.679688 L 166.703125 256.816406 C 166.703125 254.898438 165.148438 253.351562 163.234375 253.351562 Z M 159.769531 267.214844 L 152.835938 267.214844 L 152.835938 260.28125 L 159.769531 260.28125 Z M 159.769531 267.214844 " fill-opacity="1" fill-rule="nonzero"/><path fill="#000000" d="M 173.632812 225.625 L 222.15625 225.625 L 222.15625 232.554688 L 173.632812 232.554688 Z M 173.632812 225.625 " fill-opacity="1" fill-rule="nonzero"/><path fill="#000000" d="M 173.632812 239.488281 L 246.417969 239.488281 L 246.417969 246.417969 L 173.632812 246.417969 Z M 173.632812 239.488281 " fill-opacity="1" fill-rule="nonzero"/><path fill="#000000" d="M 253.351562 239.488281 L 260.28125 239.488281 L 260.28125 246.417969 L 253.351562 246.417969 Z M 253.351562 239.488281 " fill-opacity="1" fill-rule="nonzero"/><path fill="#000000" d="M 173.632812 253.351562 L 222.15625 253.351562 L 222.15625 260.28125 L 173.632812 260.28125 Z M 173.632812 253.351562 " fill-opacity="1" fill-rule="nonzero"/><path fill="#000000" d="M 173.632812 267.214844 L 218.691406 267.214844 L 218.691406 274.144531 L 173.632812 274.144531 Z M 173.632812 267.214844 " fill-opacity="1" fill-rule="nonzero"/><path fill="#000000" d="M 225.621094 267.214844 L 232.554688 267.214844 L 232.554688 274.144531 L 225.621094 274.144531 Z M 225.621094 267.214844 " fill-opacity="1" fill-rule="nonzero"/></svg>